<svg width="221" height="221" viewBox="0 0 221 221" fill="none" xmlns="http://www.w3.org/2000/svg">
<circle cx="2" cy="2" r="2" fill="#ABB2BF"/>
<circle cx="56.25" cy="2" r="2" fill="#ABB2BF"/>
<circle cx="110.5" cy="2" r="2" fill="#ABB2BF"/>
<circle cx="164.75" cy="2" r="2" fill="#ABB2BF"/>
<circle cx="219" cy="2" r="2" fill="#ABB2BF"/>
<circle cx="2" cy="56.25" r="2" fill="#ABB2BF"/>
<circle cx="56.25" cy="56.25" r="2" fill="#ABB2BF"/>
<circle cx="110.5" cy="56.25" r="2" fill="#ABB2BF"/>
<circle cx="164.75" cy="56.25" r="2" fill="#ABB2BF"/>
<circle cx="219" cy="56.25" r="2" fill="#ABB2BF"/>
<circle cx="2" cy="110.5" r="2" fill="#ABB2BF"/>
<circle cx="56.25" cy="110.5" r="2" fill="#ABB2BF"/>
<circle cx="110.5" cy="110.5" r="2" fill="#ABB2BF"/>
<circle cx="164.75" cy="110.5" r="2" fill="#ABB2BF"/>
<circle cx="219" cy="110.5" r="2" fill="#ABB2BF"/>
<circle cx="2" cy="164.75" r="2" fill="#ABB2BF"/>
<circle cx="56.25" cy="164.75" r="2" fill="#ABB2BF"/>
<circle cx="110.5" cy="164.75" r="2" fill="#ABB2BF"/>
<circle cx="164.75" cy="164.75" r="2" fill="#ABB2BF"/>
<circle cx="219" cy="164.75" r="2" fill="#ABB2BF"/>
<circle cx="2" cy="219" r="2" fill="#ABB2BF"/>
<circle cx="56.25" cy="219" r="2" fill="#ABB2BF"/>
<circle cx="110.5" cy="219" r="2" fill="#ABB2BF"/>
<circle cx="164.75" cy="219" r="2" fill="#ABB2BF"/>
<circle cx="219" cy="219" r="2" fill="#ABB2BF"/>
</svg>
