<svg width="449" height="296" viewBox="0 0 449 296" fill="none" xmlns="http://www.w3.org/2000/svg">
<path d="M119.478 258.711H95.654V295.6H78.1974V258.711H0.136719V242.791L76.331 134.209H95.654V242.132H119.478V258.711ZM78.1974 242.132V188.774C78.1974 178.308 78.5634 166.487 79.2953 153.312H78.417C74.9037 160.339 71.61 166.158 68.5359 170.769L18.3619 242.132H78.1974Z" fill="black"/>
<path d="M449 258.711H425.176V295.6H407.719V258.711H329.658V242.791L405.852 134.209H425.176V242.132H449V258.711ZM407.719 242.132V188.774C407.719 178.308 408.085 166.487 408.817 153.312H407.938C404.425 160.339 401.132 166.158 398.057 170.769L347.883 242.132H407.719Z" fill="black"/>
<rect x="115.469" y="132.778" width="223.881" height="49.4282" rx="24.7141" fill="black"/>
<ellipse cx="278.292" cy="157.976" rx="18.4144" ry="10.661" fill="white"/>
<ellipse cx="176.528" cy="157.976" rx="18.4144" ry="10.661" fill="white"/>
<path d="M125.161 86.2571C125.161 38.6186 163.78 0 211.418 0H243.401C291.04 0 329.658 38.6186 329.658 86.2571H125.161Z" fill="black"/>
<rect x="125.161" y="88.1955" width="15.7306" height="36.8289" fill="black"/>
<rect x="176.285" y="88.1955" width="16.7137" height="36.8289" fill="black"/>
<rect x="141.875" y="88.1955" width="16.7137" height="36.8289" fill="black"/>
<rect x="193.982" y="88.1955" width="15.7306" height="36.8289" fill="black"/>
<rect x="245.107" y="88.1955" width="15.7306" height="36.8289" fill="black"/>
<rect x="296.231" y="88.1955" width="15.7306" height="36.8289" fill="black"/>
<rect x="159.572" y="88.1955" width="15.7306" height="36.8289" fill="black"/>
<rect x="210.696" y="88.1955" width="16.7137" height="36.8289" fill="black"/>
<rect x="261.82" y="88.1955" width="16.7137" height="36.8289" fill="black"/>
<rect x="312.945" y="88.1955" width="16.7137" height="36.8289" fill="black"/>
<rect x="228.393" y="88.1955" width="15.7306" height="36.8289" fill="black"/>
<rect x="279.517" y="88.1955" width="15.7306" height="36.8289" fill="black"/>
<path d="M313.182 191.413C313.182 239.319 274.347 278.155 226.44 278.155C178.534 278.155 139.699 239.319 139.699 191.413L139.699 189.96L313.182 189.96L313.182 191.413Z" fill="#EDAF74"/>
<ellipse cx="226.44" cy="226.304" rx="22.7758" ry="13.0581" fill="white"/>
</svg>
